#!OML:ASF E:\Style6\Style6.ASF
:FULLY-SPECIFIED
:DEGREES
3583
root 0.398448 18.2287 0.929356 34.2054 1.42797 -0.878687
lowerback 16.5346 -1.19277 7.92943
upperback -3.26348 0.387469 2.27634
thorax -13.0025 -0.315457 -2.05818
lowerneck -1.61549 1.25365 1.81363
upperneck -9.63949 0.737153 -12.4079
head -2.50233 0.684927 -4.06632
rclavicle -1.78906e-014 2.22639e-014
rhumerus -50.3808 -28.1645 -53.4809
rradius 76.0634
rwrist 164.09
rhand -16.7285 8.18282
rfingers 7.12502
rthumb 9.49732 -21.5832
lclavicle -1.78906e-014 2.22639e-014
lhumerus -47.263 26.2715 65.2345
lradius 67.4311
lwrist 28.8184
lhand -31.2911 37.1254
lfingers 7.12502
lthumb -4.56426 67.0563
rfemur -37.9948 21.8407 5.02748
rtibia 7.91077
rfoot -15.7383 -29.8305
rtoes 26.5009
lfemur -44.4826 -38.7268 10.9407
ltibia 11.2484
lfoot -23.2826 41.399
ltoes 29.455
3584
root 0.398116 18.2272 0.930496 34.2504 1.39983 -0.795061
lowerback 16.5125 -1.1883 7.82085
upperback -3.27425 0.367327 2.26679
thorax -13.0026 -0.317197 -2.00229
lowerneck -1.6524 1.27028 1.87329
upperneck -9.66162 0.753193 -12.4815
head -2.50015 0.69273 -4.09923
rclavicle 9.54166e-015 1.03368e-014
rhumerus -50.2367 -28.0232 -53.7292
rradius 76.0915
rwrist 164.129
rhand -16.7808 8.07665
rfingers 7.12502
rthumb 9.44688 -21.6916
lclavicle 9.54166e-015 1.03368e-014
lhumerus -47.2016 26.1939 65.469
lradius 67.4696
lwrist 28.8325
lhand -31.345 37.467
lfingers 7.12502
lthumb -4.61631 67.3967
rfemur -38.0237 21.7849 4.93404
rtibia 7.91242
rfoot -15.8218 -29.7466
rtoes 26.6114
lfemur -44.5098 -38.6816 10.825
ltibia 11.2509
lfoot -23.0843 41.4321
ltoes 29.1706
3585
root 0.397657 18.2267 0.933443 34.2845 1.3724 -0.747512
lowerback 16.489 -1.16814 7.7297
upperback -3.27937 0.373279 2.27233
thorax -12.9931 -0.306997 -1.94663
lowerneck -1.73924 1.28174 1.90696
upperneck -9.63949 0.768909 -12.5329
head -2.47701 0.697305 -4.12
rclavicle 8.34896e-015 -1.27222e-014
rhumerus -50.1409 -27.8492 -53.949
rradius 76.145
rwrist 164.022
rhand -16.6966 7.99982
rfingers 7.12502
rthumb 9.52805 -21.7648
lclavicle 8.34896e-015 -1.27222e-014
lhumerus -47.0739 26.1058 65.7471
lradius 67.4454
lwrist 28.8713
lhand -31.4532 37.8212
lfingers 7.12502
lthumb -4.72078 67.7487
rfemur -38.0221 21.7521 4.87458
rtibia 7.85925
rfoot -15.7098 -29.776
rtoes 26.3069
lfemur -44.5684 -38.7142 10.8099
ltibia 11.2824
lfoot -22.8904 41.5831
ltoes 28.6428
3586
root 0.396449 18.2253 0.937708 34.2773 1.3802 -0.817693
lowerback 16.523 -1.15667 7.76712
upperback -3.28159 0.402914 2.29249
thorax -13.0138 -0.295806 -1.95297
lowerneck -1.89595 1.32051 1.92657
upperneck -9.52724 0.835318 -12.5436
head -2.41231 0.720781 -4.12476
rclavicle 5.56597e-015 3.18055e-015
rhumerus -50.0605 -27.7295 -54.1489
rradius 76.1167
rwrist 163.905
rhand -16.6756 7.95122
rfingers 7.12502
rthumb 9.54831 -21.8124
lclavicle 5.56597e-015 3.18055e-015
lhumerus -46.9627 26.0153 65.9598
lradius 67.4201
lwrist 28.9748
lhand -31.5192 37.6673
lfingers 7.12502
lthumb -4.78447 67.5933
rfemur -37.9542 21.7777 4.96036
rtibia 7.76401
rfoot -15.7152 -29.7687
rtoes 26.4888
lfemur -44.5897 -38.755 10.9171
ltibia 11.3427
lfoot -23.2185 41.58
ltoes 28.8927
3587
root 0.394988 18.2232 0.940505 34.2798 1.3967 -0.922884
lowerback 16.5603 -1.13279 7.83885
upperback -3.28429 0.457477 2.31702
thorax -13.035 -0.275526 -1.98054
lowerneck -1.99213 1.33411 1.92397
upperneck -9.49799 0.860987 -12.5116
head -2.38603 0.728568 -4.11366
rclavicle 0 -1.51076e-014
rhumerus -49.9357 -27.7345 -54.324
rradius 76.0628
rwrist 163.86
rhand -16.7841 8.01304
rfingers 7.12502
rthumb 9.44368 -21.7554
lclavicle 0 -1.51076e-014
lhumerus -46.8409 25.8918 66.168
lradius 67.3796
lwrist 29.0147
lhand -31.492 37.411
lfingers 7.12502
lthumb -4.75823 67.3375
rfemur -37.9053 21.8098 5.07051
rtibia 7.65597
rfoot -16.0351 -29.6115
rtoes 27.4499
lfemur -44.6435 -38.7814 11.0881
ltibia 11.4127
lfoot -23.592 41.5532
ltoes 29.235
3588
root 0.393693 18.2216 0.941894 34.3344 1.40245 -0.962286
lowerback 16.5008 -1.10545 7.84669
upperback -3.28029 0.490798 2.3314
thorax -12.9916 -0.25851 -1.97847
lowerneck -2.03773 1.34671 1.92858
upperneck -9.54037 0.875666 -12.5013
head -2.38988 0.735634 -4.11171
rclavicle 3.97569e-015 5.56597e-015
rhumerus -49.7938 -27.8027 -54.5004
rradius 76.0752
rwrist 163.916
rhand -16.8704 8.10894
rfingers 7.12502
rthumb 9.36035 -21.6632
lclavicle 3.97569e-015 5.56597e-015
lhumerus -46.6614 25.7501 66.4404
lradius 67.3744
lwrist 29.0888
lhand -31.4442 37.4877
lfingers 7.12502
lthumb -4.7121 67.4153
rfemur -37.916 21.7934 5.09248
rtibia 7.53288
rfoot -16.1046 -29.5569
rtoes 27.6027
lfemur -44.7618 -38.764 11.1924
ltibia 11.4965
lfoot -23.6851 41.5541
ltoes 29.4174
3589
root 0.391329 18.2221 0.942549 34.3621 1.37559 -0.95081
lowerback 16.5031 -1.08032 7.784
upperback -3.28812 0.510933 2.32505
thorax -12.9996 -0.245126 -1.95575
lowerneck -2.12327 1.35108 1.89896
upperneck -9.28731 0.941546 -12.1157
head -2.5822 0.726099 -4.4329
rclavicle -6.75868e-015 -8.74653e-015
rhumerus -49.7092 -27.8474 -54.6584
rradius 76.0423
rwrist 163.952
rhand -16.9141 8.14712
rfingers 7.12502
rthumb 9.31823 -21.6269
lclavicle -6.75868e-015 -8.74653e-015
lhumerus -46.5176 25.5908 66.6954
lradius 67.393
lwrist 29.1657
lhand -31.4756 37.867
lfingers 7.12502
lthumb -4.7424 67.7939
rfemur -37.9333 21.7913 5.07695
rtibia 7.48808
rfoot -15.8446 -29.6666
rtoes 27.0421
lfemur -44.7519 -38.6564 11.1007
ltibia 11.5377
lfoot -23.4392 41.551
ltoes 29.1451
3590
root 0.389838 18.2225 0.945614 34.3358 1.41351 -0.969036
lowerback 16.5413 -1.08352 7.7726
upperback -3.2855 0.51132 2.35038
thorax -13.0197 -0.243354 -1.92097
lowerneck -2.19764 1.36907 1.9131
upperneck -9.23779 0.971687 -12.1231
head -2.54908 0.737006 -4.43583
rclavicle 4.77083e-015 3.57812e-014
rhumerus -49.6074 -27.7696 -54.8329
rradius 76.0467
rwrist 163.942
rhand -16.9447 8.16797
rfingers 7.12502
rthumb 9.28874 -21.6074
lclavicle 4.77083e-015 3.57812e-014
lhumerus -46.4507 25.4979 66.893
lradius 67.4666
lwrist 29.205
lhand -31.307 38.0102
lfingers 7.12502
lthumb -4.57963 67.9407
rfemur -37.9083 21.7817 5.16622
rtibia 7.55244
rfoot -15.6871 -29.7229
rtoes 26.6673
lfemur -44.6522 -38.597 11.034
ltibia 11.5187
lfoot -23.284 41.5097
ltoes 28.8609
3591
root 0.389221 18.2226 0.947807 34.3745 1.42902 -0.959481
lowerback 16.5301 -1.06558 7.77123
upperback -3.30473 0.533547 2.33763
thorax -13.0331 -0.234432 -1.94025
lowerneck -2.29232 1.36385 1.95252
upperneck -9.16992 0.973726 -12.1117
head -2.50825 0.73133 -4.43574
rclavicle 1.31198e-014 -1.98785e-014
rhumerus -49.564 -27.7484 -54.9826
rradius 76.1746
rwrist 163.982
rhand -17.0871 8.40353
rfingers 7.12502
rthumb 9.15128 -21.3779
lclavicle 1.31198e-014 -1.98785e-014
lhumerus -46.3715 25.3605 67.0705
lradius 67.5029
lwrist 29.2
lhand -31.0781 37.966
lfingers 7.12502
lthumb -4.35852 67.9012
rfemur -37.9534 21.7406 5.17071
rtibia 7.59759
rfoot -15.7913 -29.6497
rtoes 26.9705
lfemur -44.6604 -38.5274 10.9994
ltibia 11.5077
lfoot -23.1719 41.4783
ltoes 28.7594
3592
root 0.389352 18.2233 0.949648 34.3862 1.39245 -0.922425
lowerback 16.5617 -1.04335 7.72978
upperback -3.31586 0.554454 2.30553
thorax -13.0623 -0.224358 -1.9583
lowerneck -2.40846 1.36824 1.95595
upperneck -9.08421 0.993717 -12.0579
head -2.45584 0.733657 -4.41221
rclavicle 1.03368e-014 -7.95139e-015
rhumerus -49.5166 -27.7105 -55.151
rradius 76.3208
rwrist 164.073
rhand -17.1428 8.51169
rfingers 7.12502
rthumb 9.09752 -21.2721
lclavicle 1.03368e-014 -7.95139e-015
lhumerus -46.2769 25.226 67.2589
lradius 67.5346
lwrist 29.1124
lhand -30.9594 38.0183
lfingers 7.12502
lthumb -4.24397 67.9558
rfemur -37.9622 21.7224 5.11648
rtibia 7.59923
rfoot -15.8557 -29.6075
rtoes 27.1189
lfemur -44.6401 -38.4813 10.8931
ltibia 11.5175
lfoot -22.8368 41.5792
ltoes 28.1991
